<svg xmlns="http://www.w3.org/2000/svg" viewBox="0 0 1200 700" preserveAspectRatio="xMidYMid slice">
  <defs>
    <linearGradient id="bgGrad" x1="0" y1="0" x2="1" y2="1">
      <stop offset="0%" stop-color="#dfe7fb" />
      <stop offset="100%" stop-color="#f7fbff" />
    </linearGradient>
  </defs>
  <rect width="1200" height="700" fill="url(#bgGrad)" />
  <path d="M0 520 C220 430 370 670 700 500 C980 360 1200 460 1200 520 L1200 700 L0 700 Z" fill="#fff" opacity="0.65" />
  <path d="M0 400 C180 280 360 520 720 400 C960 330 1200 390 1200 430 L1200 700 L0 700 Z" fill="#eef4ff" opacity="0.8" />
  <circle cx="1000" cy="140" r="72" fill="#e8f0ff" opacity="0.9" />
  <circle cx="850" cy="100" r="40" fill="#ffffff" opacity="0.8" />
  <path d="M50 620 L100 520 L160 560 L220 450 L270 520 L320 470 L380 520 L450 420 L500 520 L570 470 L630 520 L700 430 L760 500 L840 380 L910 520 L980 450 L1050 530 L1120 470 L1200 590 L1200 700 L0 700 Z" fill="#d7e4fb" opacity="0.7" />
</svg>
